<svg xmlns="http://www.w3.org/2000/svg" height="184" width="200"><defs><clipPath clipPathUnits="userSpaceOnUse" id="t"><path fill="#e9c6af" stroke="#520" stroke-width=".5" d="M.67-.124h200.179v185.111H.67z"/></clipPath><clipPath clipPathUnits="userSpaceOnUse" id="s"><path fill="#e9c6af" stroke="#520" stroke-width=".5" d="M.67-.124h200.179v185.111H.67z"/></clipPath><clipPath clipPathUnits="userSpaceOnUse" id="r"><path fill="#e9c6af" stroke="#520" stroke-width=".5" d="M.67-.124h200.179v185.111H.67z"/></clipPath><clipPath clipPathUnits="userSpaceOnUse" id="q"><path fill="#e9c6af" stroke="#520" stroke-width=".5" d="M.67-.124h200.179v185.111H.67z"/></clipPath><clipPath clipPathUnits="userSpaceOnUse" id="p"><path fill="#e9c6af" stroke="#520" stroke-width=".5" d="M.67-.124h200.179v185.111H.67z"/></clipPath><clipPath clipPathUnits="userSpaceOnUse" id="o"><path fill="#e9c6af" stroke="#520" stroke-width=".5" d="M.67-.124h200.179v185.111H.67z"/></clipPath><clipPath clipPathUnits="userSpaceOnUse" id="n"><path fill="#e9c6af" stroke="#520" stroke-width=".5" d="M.67-.124h200.179v185.111H.67z"/></clipPath><clipPath clipPathUnits="userSpaceOnUse" id="m"><path fill="#e9c6af" stroke="#520" stroke-width=".5" d="M.67-.124h200.179v185.111H.67z"/></clipPath><clipPath clipPathUnits="userSpaceOnUse" id="l"><path fill="#e9c6af" stroke="#520" stroke-width=".5" d="M.67-.124h200.179v185.111H.67z"/></clipPath><clipPath clipPathUnits="userSpaceOnUse" id="k"><path fill="#e9c6af" stroke="#520" stroke-width=".5" d="M.67-.124h200.179v185.111H.67z"/></clipPath><clipPath clipPathUnits="userSpaceOnUse" id="j"><path fill="#e9c6af" stroke="#520" stroke-width=".5" d="M.67-.124h200.179v185.111H.67z"/></clipPath><clipPath clipPathUnits="userSpaceOnUse" id="i"><path fill="#e9c6af" stroke="#520" stroke-width=".5" d="M.67-.124h200.179v185.111H.67z"/></clipPath><clipPath clipPathUnits="userSpaceOnUse" id="h"><path fill="#e9c6af" stroke="#520" stroke-width=".5" d="M.67-.124h200.179v185.111H.67z"/></clipPath><clipPath clipPathUnits="userSpaceOnUse" id="g"><path fill="#e9c6af" stroke="#520" stroke-width=".5" d="M.67-.124h200.179v185.111H.67z"/></clipPath><clipPath clipPathUnits="userSpaceOnUse" id="f"><path fill="#e9c6af" stroke="#520" stroke-width=".5" d="M.67-.124h200.179v185.111H.67z"/></clipPath><clipPath clipPathUnits="userSpaceOnUse" id="e"><path fill="#e9c6af" stroke="#520" stroke-width=".5" d="M.67-.124h200.179v185.111H.67z"/></clipPath><clipPath clipPathUnits="userSpaceOnUse" id="d"><path fill="#e9c6af" stroke="#520" stroke-width=".5" d="M.67-.124h200.179v185.111H.67z"/></clipPath><clipPath clipPathUnits="userSpaceOnUse" id="c"><path fill="#e9c6af" stroke="#520" stroke-width=".5" d="M.67-.124h200.179v185.111H.67z"/></clipPath><clipPath clipPathUnits="userSpaceOnUse" id="b"><path fill="#e9c6af" stroke="#520" stroke-width=".5" d="M.67-.124h200.179v185.111H.67z"/></clipPath><clipPath clipPathUnits="userSpaceOnUse" id="a"><path fill="#e9c6af" stroke="#520" stroke-width=".5" d="M.67-.124h200.179v185.111H.67z"/></clipPath><clipPath id="u" clipPathUnits="userSpaceOnUse"><path fill="#e9c6af" stroke="#520" stroke-width=".5" d="M.67-.124h200.179v185.111H.67z"/></clipPath></defs><path d="M92.955 221.902c-9.278-12.265-23.863-19.576-34.235-30.931-5.516-6.039-36.322-46.362-39.476-53.908-2.46-5.889-6.52-13.253-7.049-22.66-.247-4.405 8.61 2.01 12.777 3.459 12.384 4.303 23.268 13.077 36.156 15.48 13.53 2.524 27.895 1.803 41.261-1.477 11.418-2.803 22.36-8.232 31.828-15.202 9.906-7.29 19.582-16.063 25.08-27.066 5.316-10.636 6.525-23.207 6.37-35.096-.098-7.632-13.664-1.673-7.19-5.717 5.3-3.31 12.445 2.971 16.927 7.326 3.813 3.704 21.738 24.849 24.598 29.33 4.843 5.223 27.742 76.25 29.999 88.638-26.916 42.736-123.812 64.157-137.046 47.824z" fill="#e9c6af" stroke="#520" stroke-width=".5" clip-path="url(#a)"/><path d="M4.07 92.334C2.507 82.447 2.696 72.007 5.255 62.33c2.325-8.79 6.469-17.454 12.539-24.224C24.596 30.52 34.153 25.774 43.25 21.19 56.17 14.68 69.985 9.755 84.065 6.432c9.896-2.335 20.133-3.229 30.296-3.545 5.313-.166 8.24-.51 15.924.864 6.418 1.147 12.554 4.531 17.452 8.836 5.903 5.19 8.43 8.693 13.258 19.5 4.828 10.805 5.783 16.786 5.978 22.787.219 6.758-.183 13.588-1.419 20.235-.89 4.794-2.154 9.6-4.287 13.984-2.334 4.8-5.718 9.054-9.146 13.146-3.581 4.276-7.619 8.178-11.846 11.816-3.317 2.855-6.916 5.377-10.552 7.81-3.117 2.087-6.231 4.237-9.636 5.81-5.435 2.509-11.249 4.153-17.033 5.696-4.524 1.205-9.123 2.199-13.77 2.767-4.273.522-8.607.877-12.902.578-6.904-.482-13.714-2.062-20.413-3.8-2.707-.702-5.345-1.661-7.955-2.667-3.497-1.347-10.218-2.928-17.182-5.363-3.483-1.217-7.025-2.647-10.256-4.368-3.23-1.722-8.382-6.114-8.382-6.114-5.364-5.717-6.902-14.327-8.124-22.07z" fill="#e9c6af" stroke="#520" stroke-width=".5" clip-path="url(#b)"/><path d="M71.378 14.728c.85.715 1.63 2.174 2.022 4.085v0c.294 1.434.356 3 .254 4.677h0c-.21 3.417-1.108 7.088-1.455 9.787v0c-.123.956-.176 1.782-.11 2.423v0c.152 1.46 1.816 4.566 3.574 7.625h0c2.1 3.653 4.992 8.002 5.22 9.157-.348-1.76 1.353-5.518 3.042-9.781h0c1.32-3.332 2.437-6.623 2.245-8.463v0c-.075-.722-.321-1.648-.708-2.704v0c-1.117-3.053-3.312-7.018-6.081-10.228h0a26.812 26.812 0 00-3.995-3.795v0c-1.709-1.313-3.187-2.093-4.008-2.783z" fill="#520" stroke="#520" clip-path="url(#c)"/><path d="M45.864 24.188c1.273 2.599 2.757 7.78 4.504 11.993v0c1.76 4.244 3.657 7.585 4.925 8.663h0l.013.011v0c1.447 1.216 4.332 1.801 6.845 2.12v0c1.064.134 1.988.231 2.804.416v0c1.072.243 1.836.635 2.088 1.101-.237-.438-.312-1.32-.625-2.508v0a22.549 22.549 0 00-1.049-3.02v0c-.999-2.372-2.504-5.172-3.454-5.97v0l-.011-.01h0c-1.068-.886-4.093-1.78-7.543-4.02v0c-3.624-2.354-7.063-5.849-8.497-8.775zm60.963-17.354c-1.508 1.19-4.818 2.645-7.732 5.098h0c-2.692 2.265-4.687 4.968-5.75 7.499v0c-.363.866-.58 1.642-.643 2.249v0c-.156 1.519.81 4.101 2.25 6.723h0c1.792 3.26 4.177 6.35 4.5 7.98-.334-1.687.795-5.387 2.183-8.43h0c1.079-2.364 2.285-4.162 2.383-5.11v0c.041-.406-.016-.93-.118-1.552v0c-.288-1.77-.863-4.068-.574-6.887h0c.33-3.219 1.821-6.245 3.5-7.57zm35.083 5.62c.857.72 1.622 2.01 1.767 3.476v0c.108 1.093-.133 2.104-.583 3.074h0c-.427.919-1.05 1.818-1.687 2.686h0c-.778 1.059-1.53 2.01-2.135 2.967v0c-.291.459-.525.885-.674 1.261v0c-.439 1.11-.716 4.395-.551 7.575v0a27.13 27.13 0 00.648 4.783v0c.44 1.892 1.057 3.334 1.241 4.266-.194-.985.11-2.466.922-4.043v0c.616-1.195 1.446-2.325 2.377-3.451v0c1.86-2.25 3.75-4.109 4.333-5.58v0c.157-.398.295-.918.408-1.528v0c.222-1.198.37-2.868.288-4.594h0c-.072-1.513-.32-3.056-.845-4.498h0a10.503 10.503 0 00-2.231-3.662v0c-1.179-1.259-2.46-2.046-3.277-2.732z" fill="#803300" stroke="#803300" clip-path="url(#d)"/><path d="M125.558 4.966c.343 1.781-.333 4.435-1.736 6.995h0c-1.246 2.274-2.889 4.285-3.66 5.722h0c-.133.248-.24.477-.314.684v0c-.38 1.05-.486 3.835-.424 6.564h0c.07 3.078.557 6.187.404 7.632.174-1.65 1.71-3.965 3.617-6.304h0c1.693-2.076 3.349-3.9 3.822-5.21v0c.08-.22.15-.484.21-.785h0c.353-1.75.413-4.774-.015-7.729h0c-.456-3.147-1.604-6.012-1.904-7.569zM29.29 34.97c1.49 1.448 3.25 5.344 4.413 8.314h0c.978 2.498 1.632 4.667 2.208 5.225v0c.21.204.517.392.895.573v0c1.287.615 3.357 1.117 5.452 2.334h0c2.39 1.389 4.62 3.658 5.326 5.54-.652-1.74-.739-5.1-1.145-8.123h0c-.387-2.884-1.07-5.415-2.028-7.155v0c-.263-.477-.533-.858-.796-1.114v0c-.864-.837-3.083-1.323-5.753-1.995h0c-3.227-.812-6.92-1.995-8.572-3.6z" fill="#520" stroke="#520" clip-path="url(#e)"/><path d="M12.718 50.28c2.11 1.263 6.356 5.482 8.877 8.146h0a89.24 89.24 0 013.015 3.345v0c.609.704 1.026 1.19 1.345 1.365v0c.234.128.537.207.854.238v0c.653.063 1.124-.064 1.767-.233v0c.256-.068.533-.134.824-.14h0c.29-.005.593.049.9.208h0c.66.341 1.19 1.092 1.486 2.117v0c.386 1.338.303 2.91-.056 3.945.378-1.09 1.151-2.268 1.946-3.668v0c.571-1.005 1.162-2.15 1.417-3.478h0c.125-.647.167-1.32.11-2.021h0a8.246 8.246 0 00-.457-2.09h0a10.123 10.123 0 00-2.234-3.59v0c-.438-.45-.864-.788-1.235-.992v0c-.527-.289-1.363-.455-2.426-.546v0c-1.27-.108-2.852-.105-4.634-.175h0c-4.086-.158-8.834-.836-11.5-2.43z" fill="#803300" stroke="#803300" clip-path="url(#f)"/><path d="M5.634 71.951c2.345.343 5.52 2.241 8.356 4.816h0c2.408 2.186 4.395 4.635 6 6.157v0c.588.558 1.118.989 1.581 1.242v0c1.045.573 3.708.787 6.427.685h0c3.476-.13 6.847-1.1 8.241-.912-1.664-.225-3.64-2.557-5.446-5.175h0C29.41 76.759 28.15 74.8 27.04 74.19v0c-.45-.246-1.105-.468-1.92-.676v0c-2.2-.562-5.746-1.075-9.299-1.293h0c-4.037-.248-8.074.038-10.187-.271zm82.633 22.044c-.04 1.286-1.147 3.07-2.606 4.982h0c-1.379 1.806-2.722 3.416-3.359 4.957h0c-.1.24-.173.463-.216.663v0c-.24 1.11.179 3.55 1.034 6.116h0c.936 2.81 2.495 5.658 2.876 7.233-.437-1.805.192-4.666 1.357-7.088h0c1.008-2.096 2.245-3.67 2.445-4.594v0a3.39 3.39 0 00.063-.589h0c.039-1.117-.284-3.73-.617-5.839h0c-.385-2.43-1.013-4.707-.977-5.841zm67.383-60.189c.764 1.56 1.16 3.815.63 5.843v0a6.316 6.316 0 01-.912 2.007v0c-.38.55-.827 1-1.311 1.375h0c-.973.755-2.138 1.24-3.213 1.626h0c-1.473.528-2.809.883-3.627 1.367v0a.184.184 0 00-.014.008v0c-.713.427-1.951 1.59-3.23 2.872v0c-.979.983-2.094 2.156-2.963 3.273h0a13.55 13.55 0 00-1.122 1.654h0c-.322.573-.553 1.122-.672 1.64h0a3.332 3.332 0 00-.09.775h0c.001.262.041.486.103.68h0a2.3 2.3 0 00.253.53v0c.11.175.213.312.287.449a.702.702 0 01-.06-.493v0a.721.721 0 01.232-.378h0c.105-.092.235-.156.386-.201h0c.138-.042.295-.068.468-.086h0c.31-.032.728-.042 1.187-.053h0c.458-.01.97-.021 1.563-.044h0a37.02 37.02 0 004.114-.363v0c1.953-.296 3.726-.79 4.815-1.44v0l.019-.012v0c1.013-.612 2.582-2.088 3.914-4.108h0c1.034-1.568 1.89-3.415 2.256-5.441h0c.177-.98.23-1.944.166-2.896v0a12.599 12.599 0 00-.527-2.83v0c-.694-2.29-1.92-4.258-2.652-5.754zm-46.117 55.493c-.02.647-.298 1.528-.472 2.551v0c-.135.798-.186 1.613-.05 2.544h0c.13.895.41 1.73.722 2.467h0c.358.842.773 1.597 1.05 1.962v0c.095.126.187.225.276.294v0c.264.203.744.281 1.375.373v0c.596.086 1.326.187 2.127.489v0c1.936.727 3.798 2.625 4.255 4.517-.38-1.576-.285-4.575-.875-7.07v0a15.196 15.196 0 00-.995-2.908v0c-.384-.823-.768-1.416-1.072-1.65v0a1.809 1.809 0 00-.407-.228v0c-.526-.22-1.158-.286-1.82-.293h0c-.506-.005-1.094.028-1.611-.056h0a2.776 2.776 0 01-1.58-.806v0c-.617-.626-.945-1.517-.924-2.186z" fill="#520" stroke="#520" clip-path="url(#g)"/><path d="M70.661 95.126c-1.952 1.428-4.798 3.499-7.005 6.935h0c-.82 1.277-1.505 2.687-1.932 4.172h0c-.418 1.453-.594 2.99-.38 4.526h0a8.512 8.512 0 002.032 4.48h0c1.315 1.5 3.04 2.417 4.781 2.883v0c1.575.422 3.097.464 4.314.341v0c.476-.048 1.17-.451 1.938-1.072h0c2.042-1.654 4.44-4.987 5.847-5.643-1.757.819-5.261-.2-7.213-1.122h0c-.69-.326-1.156-.585-1.42-.558v0c-.778.079-1.345.146-2.056.177v0c-.634.028-1.282.021-1.757-.09h0c-.46-.108-.983-.356-1.462-.972h0c-.46-.591-.82-1.454-.97-2.56h0c-.152-1.125-.073-2.394.238-3.702h0c.839-3.527 3.076-6.355 5.045-7.795zm46.564-14.25c.972.587 2.247 1.553 4.053 2.335v0a14.57 14.57 0 004.674 1.16h0c3.924.312 7.75-.923 10.198-2.421h0a9.45 9.45 0 001.119-.792v0c1.623-1.36 3.568-4.5 4.923-8.27h0c1.453-4.045 1.789-8.095 2.276-9.802-.532 1.864-2.836 4.784-5.922 7.325h0c-2.63 2.164-5.4 3.58-6.507 4.506v0c-.223.187-.466.421-.73.69h0c-1.448 1.467-3.308 3.67-5.965 5.04h0c-1.21.623-2.483 1.013-3.8 1.113v0c-1.762.133-3.331-.288-4.319-.884zm-83.571-7.141c.806-.788 3.918-3.476 6.188-5.135v0c1.056-.772 2.176-1.513 3.356-2.141v0a17.007 17.007 0 013.48-1.412h0A24.937 24.937 0 0158.45 62.64v0c4.03.166 7.683 1.278 10.727 2.794v0a27.235 27.235 0 018.28 6.353h0a27.473 27.473 0 012.361 3.114v0c.298.454 2.027.791 3.724 1.411 1.73.632 3.38 1.547 3.59 2.286-.182-.638.593-2.484 1.086-4.448.506-2.014.721-4.127.22-4.893v0a27.843 27.843 0 00-3.641-4.444h0c-2.92-2.91-6.992-5.764-12.167-7.634v0c-4.276-1.545-9.211-2.372-14.41-1.918v0a31.863 31.863 0 00-14.304 4.827h0c-1.3 1.057-2.374 2.218-3.294 3.389v0c-.947 1.204-1.753 2.447-2.455 3.586v0c-1.993 3.238-3.028 5.22-4.513 6.671z" fill="#fff" stroke="#fff" clip-path="url(#h)"/><path d="M133.677 37.328c-2.174-1.31-4.943-2.714-8.4-3.37v0c-2.633-.5-5.545-.542-8.749.094h0c-2.86.567-5.805 1.648-8.785 3.238h0c-2.856 1.523-5.641 3.46-8.293 5.698v0c-5.608 4.735-10.23 10.482-13.505 15.747h0c-1.999 3.215-3.456 6.177-4.447 8.704v0c-.66 1.684-1.108 3.16-1.388 4.401v0c-.096.426 1.128 1.58 2.417 2.584 1.288 1.004 2.637 1.843 2.605 2.175.032-.332 1.538-.84 3.06-1.235 1.52-.395 3.05-.69 3.12-.996v0c.199-.881.446-2.022.804-3.396v0a62.008 62.008 0 012.564-7.722h0c2.023-4.992 5.08-10.746 9.2-15.905v0c1.934-2.423 4.03-4.619 6.248-6.468h0c2.31-1.926 4.694-3.427 7.116-4.45h0c2.716-1.148 5.376-1.65 7.937-1.587v0a17.329 17.329 0 018.496 2.488zM159.086 57c-.187 4.969-2.063 12.272-5.85 19.203h0c-3.101 5.679-6.859 10.094-10.646 13.838v0c-2.916 2.883-5.604 5.132-7.21 6.808v0c-1.046 1.092-2.371 3.46-4.03 6.218h0c-3.675 6.111-8.812 13.413-12.639 15.818 3.396-2.135 12.816-4.607 19.644-7.798h0c3.273-1.53 5.91-3.128 7.206-4.48v0c1.929-2.013 4.378-5.47 6.57-9.845v0c2.86-5.707 4.852-12.048 5.91-18.972h0c1.345-8.81.844-15.457 1.045-20.79zM12.327 96.733c3.327 2.288 8.247 7.579 14.538 13.743 6.474 6.344 12.737 11.86 18.526 15.362v0c1.314.795 2.503 1.419 3.518 1.85v0c3.702 1.576 11.107 2.743 18.901 2.23h0c4.62-.303 8.753-1.125 12.592-2.228 3.71-1.066 6.74-2.298 8.806-2.867-2.116.583-5.337.737-9 .194-3.721-.552-7.413-1.73-11.062-3.362h0c-6.09-2.721-11.315-6.45-14.37-7.75v0c-.863-.368-1.955-.751-3.228-1.172v0c-7-2.314-11.593-3.595-21.243-7.49-7.595-3.066-15.054-6.5-17.978-8.51z" fill="#fff" stroke="#fff" clip-path="url(#i)"/><path d="M51.44 105.464c-.629-.653-1.382-1.515-2.726-2.544v0c-.989-.757-2.115-1.46-3.421-2.138h0c-2.817-1.46-6.5-2.76-7.907-3.094h0c-.985-.236-2.332-.395-4.01-.66h0c-1.226-.193-2.504-.426-3.728-.776h0c-1.235-.353-2.338-.803-3.302-1.394v0c-1.287-.79-2.136-1.73-2.579-2.527.447.804 1.002 1.89 2.075 3.118v0c.8.916 1.772 1.772 2.956 2.579h0c1.167.796 2.43 1.467 3.654 2.023h0c1.582.719 3.11 1.25 4.02 1.467h0c1.659.396 5.088.586 8.182 1.127h0c1.352.236 2.578.538 3.68.953v0c1.468.554 2.504 1.24 3.107 1.866zm99.823-38.504c-.758 2.405-.986 4.387-2.747 8.65h0c-1.36 3.294-3.094 6.387-4.601 8.495v0c-.365.51-.706.945-1.006 1.284v0c-1.266 1.43-4.048 3.461-7.11 5.555-3.023 2.066-5.887 3.929-7.135 5.163 1.158-1.146 3.277-4.141 5.253-7.044 1.891-2.779 4.034-6.101 5.007-7.201v0c.285-.322.65-.692 1.074-1.105v0c1.839-1.788 4.143-3.791 6.473-6.414h0c2.524-2.84 4.205-5.52 4.792-7.384z" fill="#803300" stroke="#803300" clip-path="url(#j)"/><path transform="translate(-4.403 4.119)" d="M159.715 116.646c2.097-1.532 6.686-3.258 11.54-5.77 5.088-2.632 9.73-5.707 13.132-9.138v0c1.36-1.373 2.378-2.673 2.938-3.744v0c1.224-2.338 1.312-7.556.604-12.829-.692-5.157-2.16-9.956-1.919-12.24-.258 2.449-3.023 6.381-6.348 9.733-3.25 3.275-6.789 5.687-7.647 7.327v0c-.416.795-.763 1.982-1.144 3.44v0c-.996 3.809-1.946 7.992-4.191 12.995-2.092 4.66-4.793 8.64-6.965 10.226z" fill="#520" stroke="#520" clip-path="url(#k)"/><path transform="matrix(1.04619 0 0 1.13233 -12.488 -12.736)" d="M168.824 134.942c2.453-.93 6.995-1.047 11.545-1.587v0c4.05-.48 7.673-1.272 10.81-2.717v0c1.665-.767 2.964-1.629 3.675-2.43v0c.935-1.052 1.424-3.708 1.627-6.8v0c.306-4.687-.005-10.398 1.238-12.554-1.293 2.242-6.385 4.687-10.417 6.026v0c-2.58.856-4.7 1.293-5.273 1.938v0c-.476.536-.857 1.482-1.296 2.69v0c-.827 2.277-1.703 4.918-3.745 7.966v0c-2.305 3.44-5.653 6.516-8.164 7.468z" fill="#803300" stroke="#803300" clip-path="url(#l)"/><path transform="translate(-.776 3.963)" d="M54.576 165.708c1.85.438 4.989 1.893 8.916 3.343 4.074 1.504 8.427 2.857 12.584 3.827v0c3.157.736 5.906 1.178 7.59 1.119v0c1.532-.054 4.413-1.81 7.17-3.584 2.756-1.773 5.336-3.52 6.626-3.566-1.252.044-4.042-1.484-6.926-2.989-2.884-1.505-5.892-3.027-7.328-2.977v0c-1.645.057-4.195.665-7.19 1.44v0c-3.96 1.025-8.025 2.148-12.17 2.9-4.024.731-7.358.94-9.272.487z" fill="#803300" stroke="#803300" clip-path="url(#m)"/><path d="M93.359 83.585c.218 1.182-.555 5.143-.988 8.472v0c-.453 3.489-.81 7.137-.378 8.34.012.034.026.068.04.102l.008.027-.025-.065.025.065c.153.398 2.04.768 3.942 1.227v0c1.9.46 3.765.87 3.892 1.263-.127-.393 1.123-1.837 2.298-3.44v0c1.156-1.577 2.275-3.2 2.13-3.727-.665-1.64-3.214-3.768-5.757-6.012v0c-2.62-2.313-4.882-4.595-5.187-6.252z" fill="#fff" stroke="#fff" clip-path="url(#n)"/><path transform="matrix(1.09356 0 0 .86298 -22.874 22.65)" d="M101.999 145.672c2.625-.022 8.615 1.208 15.272.855v0c6.122-.324 12.091-1.611 14.779-3.09v0a14.855 14.855 0 001.589-1.034v0c3.444-2.527 7.53-7.024 10.815-11.632v0a71.501 71.501 0 003.637-5.65v0c1.26-2.167 2.062-3.787 2.702-4.502-.663.741-2.216 1.595-4.447 2.56v0c-1.678.727-3.73 1.51-5.965 2.307v0c-4.834 1.723-10.445 3.364-13.73 4.72v0c-.574.237-1.079.47-1.499.7v0c-2.292 1.263-6.131 5.064-10.427 8.368v0c-4.99 3.837-9.77 6.374-12.726 6.398z" fill="#520" stroke="#520" clip-path="url(#o)"/><path transform="translate(-4.403 4.119)" d="M120.072 166.552c1.19-.063 3.243.236 5.982.373v0c2.126.106 4.47.12 7.04-.043v0c5.352-.338 10.492-1.399 12.967-2.666v0a15.21 15.21 0 001.613-.978v0c3.17-2.168 7.084-6.045 9.597-10.204v0c1.15-1.904 1.885-3.654 2.295-5.223v0c.553-2.116.412-3.456.471-4.361-.06.923-.757 2.128-2.184 3.333v0c-1.062.898-2.458 1.748-4.128 2.57v0c-3.568 1.758-8.267 3.216-11.21 4.387v0c-.568.226-1.069.443-1.486.657v0c-2.05 1.05-5.756 4.128-9.782 6.801v0c-1.966 1.306-3.89 2.469-5.683 3.391v0c-2.357 1.213-4.284 1.899-5.492 1.963z" fill="#803300" stroke="#803300" clip-path="url(#p)"/><path d="M82.996 87.551c.388-.873 1.147-1.932 2.176-2.755v0a6.87 6.87 0 012.476-1.276h0c.83-.23 1.634-.28 2.393-.256h0c.865.03 1.71.162 2.378.244v0c.359.044.676.076.94.077v0c.582.001 2.794-.45 4.618-.753h0c2.113-.35 5.339-.867 6.099-.842-1.286-.043-3.318-1.01-5.736-2.055h0c-2-.863-3.792-1.512-4.97-1.515v0a6.8 6.8 0 00-1.224.13v0c-.9.172-2.004.517-3.1 1.091h0c-.956.5-1.842 1.137-2.627 1.93h0c-.81.819-1.429 1.716-1.939 2.656v0c-.683 1.26-1.092 2.442-1.484 3.324z" fill="#803300" stroke="#803300" clip-path="url(#q)"/><g clip-path="url(#r)"><path d="M73.082 101.969c.611-1.004 1.488-2.309 2.227-4.088a17.617 17.617 0 001.206-4.529c.438-3.368-.043-6.855-1-10-.659-2.16-1.49-3.976-2.174-5.074-.591-.948-1.949-2.232-3.62-3.539-3.066-2.398-6.922-4.549-8.038-5.81 1.112 1.256 2.688 5.324 3.94 8.826.654 1.826 1.22 3.496 1.705 4.272.603.967 1.644 2.303 2.736 3.877 1.562 2.253 3.08 4.797 3.825 7.583.381 1.426.532 2.818.448 4.162-.113 1.8-.641 3.312-1.255 4.32zm29.438-37.622c-.102 1.159-.62 2.983-.867 5.083-.195 1.666-.213 3.365.059 5.116.418 2.702 1.467 4.953 2.413 5.952.655.691 1.681 1.465 3.004 2.195 2.63 1.45 5.763 2.385 9.073 3.041 3.716.737 7.024 1.025 8.583 1.552-1.48-.5-4.448-2.316-7.229-4.53-2.595-2.065-4.384-3.948-5.87-5.798-.702-.874-1.236-1.61-1.655-2.053-.607-.64-2.112-1.35-3.626-2.649a11.674 11.674 0 01-2.643-3.202c-.935-1.681-1.348-3.496-1.242-4.707z"/><path d="M102.838 62.846c1.082-4.231.592-3.781 2.206-7.84 1.384-3.482 3.711-6.714 6.605-9.094 1.88-1.547 4.207-2.804 6.627-3.071 1.786-.197 3.683.295 5.266 1.145 3.034 1.628 5.665 4.229 7.406 7.199 1.648 2.81 2.31 6.19 2.524 9.44.207 3.153.195 6.579-1.229 9.4-1.237 2.45-5.321 5.293-5.936 5.707-.614.415-4.544 1.867-6.945 1.916-2.876.058-5.645-1.145-8.404-1.955-1.655-.486-3.392-.854-4.872-1.738-1.438-.859-3.345-1.737-3.73-3.367-.214-.9.253-6.845.482-7.742zm-58.776 9.026c1.784-1.898 3.818-3.895 6.33-4.582 3.19-.872 6.858-.433 9.875.918 4.632 2.074 10.994 9.559 11.148 10.368.153.81 2.937 4.855 2.644 7.485-.306 2.744-2.546 4.975-4.41 7.011-1.787 1.95-3.816 3.949-6.32 4.799-1.836.623-3.935.5-5.816.03-5.114-1.28-10.709-3.337-13.912-7.525-2.698-3.526-3.788-8.587-3.05-12.965.363-2.156 2.013-3.947 3.51-5.54z" stroke="#000"/></g><g fill="#fc0" clip-path="url(#s)"><ellipse cx="56.571" cy="83.534" rx="12.925" ry="13.472" fill-rule="evenodd" stroke="#2b0000" stroke-width="1.282"/><ellipse cx="118.29" cy="61.961" rx="12.089" ry="14.206" fill-rule="evenodd" stroke="#2b0000" stroke-width="1.273"/><path d="M95.556 112.294l8.034 13.552 4.574-1.637.274-7.44c.035-7.271-.948-5.075-1.459-7.398z"/></g><g clip-path="url(#t)"><ellipse ry="9.528" rx="11.714" cy="85.424" cx="58.794" fill="none"/><ellipse ry="9.805" rx="8.232" cy="82.535" cx="57.388" fill-rule="evenodd" stroke="#2b0000" stroke-width=".873"/><ellipse cx="118.02" cy="61.579" rx="8.291" ry="9.324" fill-rule="evenodd" stroke="#2b0000" stroke-width=".854"/><path d="M95.556 112.294c.227.168.513.399.868.754.276.277.579.613.916 1.03.588.727 1.204 1.602 1.893 2.656.636.974 1.27 2 1.901 3.003a61.768 61.768 0 001.835 2.792c.736 1.038 1.242 1.612 1.63 2.005l.141.141c.162.16.323.298.476.402.084.057.16.1.228.13a.772.772 0 00.156.053.4.4 0 00.11.01.383.383 0 00.132-.038c.106-.05.263-.166.456-.426.18-.243.38-.594.586-1.091.197-.473.396-1.066.595-1.807a19.53 19.53 0 00.802-7.117c-.178-2.39-.78-4.276-1.302-5.42.525 1.152 1.308 2.938 1.761 5.36.459 2.449.473 5-.01 7.485a17.5 17.5 0 01-.565 1.993c-.207.574-.428 1.041-.668 1.415-.257.4-.546.71-.883.92a1.893 1.893 0 01-1.175.291 2.178 2.178 0 01-.578-.129c-.19-.07-.366-.16-.524-.26a4.803 4.803 0 01-.928-.788c-.458-.501-.976-1.254-1.608-2.396-.493-.89-.992-1.899-1.543-3.04-.517-1.073-1.028-2.156-1.546-3.188-.557-1.11-1.065-2.049-1.557-2.823a11.529 11.529 0 00-.788-1.11c-.314-.384-.585-.64-.811-.806z"/><ellipse cx="52.564" cy="81.274" rx="1.418" ry="1.476" fill="#fff"/><ellipse ry="1.476" rx="1.418" cy="59.563" cx="114.931" fill="#fff"/><path d="M17.183 16.558a8.97 8.97 0 011.008-1.877c.388-.56.879-1.157 1.486-1.753a13.637 13.637 0 013.933-2.698c1.522-.68 3.042-.983 4.43-.88-1.388-.103-2.908.2-4.43.88a13.637 13.637 0 00-3.933 2.698 12.177 12.177 0 00-1.486 1.753 8.97 8.97 0 00-1.008 1.877z"/></g><path d="M16.541 117.589c1.944 1.47 3.887 2.941 6.303 4.168 2.417 1.227 5.306 2.212 8.653 3.31 3.346 1.098 7.15 2.31 10.588 3.421 3.44 1.112 6.514 2.124 9.915 3.209 3.402 1.085 7.13 2.244 10.536 2.965 3.405.721 6.487 1.005 9.115 1.339 2.628.333 4.802.716 7.215.78 2.413.065 5.065-.189 7.587-.468 2.521-.28 4.912-.585 7.986-1.122a124.964 124.964 0 0011.173-2.476c4.345-1.174 9.28-2.753 13.694-4.754 4.413-2.001 8.268-4.401 12.186-7.21 3.918-2.808 7.826-5.98 10.984-8.726 3.158-2.745 5.567-5.062 8.148-7.88 2.582-2.819 5.337-6.138 7.549-9.453 2.212-3.315 3.881-6.628 5.09-10.162 1.209-3.534 1.957-7.29 2.543-11.477.586-4.188 1.01-8.809 1.433-13.43" fill="none" stroke="#e9c6af" stroke-width="3"/><path clip-path="url(#u)" stroke="#520" fill="#520" d="M54.576 165.708c1.85.438 4.989 1.893 8.916 3.343 4.074 1.504 8.427 2.857 12.584 3.827v0c3.157.736 5.906 1.178 7.59 1.119v0c1.532-.054 4.413-1.81 7.17-3.584 2.756-1.773 5.336-3.52 6.626-3.566-1.252.044-4.042-1.484-6.926-2.989-2.884-1.505-5.892-3.027-7.328-2.977v0c-1.645.057-4.195.665-7.19 1.44v0c-3.96 1.025-8.025 2.148-12.17 2.9-4.024.731-7.358.94-9.272.487z" transform="translate(-17.785 -18.575)"/></svg>