<?xml version="1.0" encoding="UTF-8" standalone="no"?>
<svg
   xmlns:dc="http://purl.org/dc/elements/1.1/"
   xmlns:cc="http://creativecommons.org/ns#"
   xmlns:rdf="http://www.w3.org/1999/02/22-rdf-syntax-ns#"
   xmlns:svg="http://www.w3.org/2000/svg"
   xmlns="http://www.w3.org/2000/svg"
   xmlns:sodipodi="http://sodipodi.sourceforge.net/DTD/sodipodi-0.dtd"
   xmlns:inkscape="http://www.inkscape.org/namespaces/inkscape"
   height="184"
   width="200"
   version="1.1"
   id="svg2198"
   sodipodi:docname="target_owl2.svg"
   inkscape:version="1.0 (4035a4fb49, 2020-05-01)">
  <metadata
     id="metadata2204">
    <rdf:RDF>
      <cc:Work
         rdf:about="">
        <dc:format>image/svg+xml</dc:format>
        <dc:type
           rdf:resource="http://purl.org/dc/dcmitype/StillImage" />
        <dc:title></dc:title>
      </cc:Work>
    </rdf:RDF>
  </metadata>
  <defs
     id="defs2202">
    <inkscape:path-effect
       only_selected="false"
       apply_with_weight="true"
       apply_no_weight="true"
       helper_size="0"
       steps="2"
       weight="33.333333"
       lpeversion="1"
       is_visible="true"
       id="path-effect97"
       effect="bspline" />
    <inkscape:path-effect
       only_selected="false"
       apply_with_weight="true"
       apply_no_weight="true"
       helper_size="0"
       steps="2"
       weight="33.333333"
       lpeversion="1"
       is_visible="true"
       id="path-effect93"
       effect="bspline" />
    <clipPath
       clipPathUnits="userSpaceOnUse"
       id="clipPath2963">
      <rect
         style="fill:#e9c6af;stroke:#552200;stroke-width:0.5"
         id="rect2965"
         width="200.17928"
         height="185.11064"
         x="0.66958368"
         y="-0.12363688" />
    </clipPath>
    <clipPath
       clipPathUnits="userSpaceOnUse"
       id="clipPath2967">
      <rect
         style="fill:#e9c6af;stroke:#552200;stroke-width:0.5"
         id="rect2969"
         width="200.17928"
         height="185.11064"
         x="0.66958368"
         y="-0.12363688" />
    </clipPath>
    <clipPath
       clipPathUnits="userSpaceOnUse"
       id="clipPath2971">
      <rect
         style="fill:#e9c6af;stroke:#552200;stroke-width:0.5"
         id="rect2973"
         width="200.17928"
         height="185.11064"
         x="0.66958368"
         y="-0.12363688" />
    </clipPath>
    <clipPath
       clipPathUnits="userSpaceOnUse"
       id="clipPath2975">
      <rect
         style="fill:#e9c6af;stroke:#552200;stroke-width:0.5"
         id="rect2977"
         width="200.17928"
         height="185.11064"
         x="0.66958368"
         y="-0.12363688" />
    </clipPath>
    <clipPath
       clipPathUnits="userSpaceOnUse"
       id="clipPath2979">
      <rect
         style="fill:#e9c6af;stroke:#552200;stroke-width:0.5"
         id="rect2981"
         width="200.17928"
         height="185.11064"
         x="0.66958368"
         y="-0.12363688" />
    </clipPath>
    <clipPath
       clipPathUnits="userSpaceOnUse"
       id="clipPath2983">
      <rect
         style="fill:#e9c6af;stroke:#552200;stroke-width:0.5"
         id="rect2985"
         width="200.17928"
         height="185.11064"
         x="0.66958368"
         y="-0.12363688" />
    </clipPath>
    <clipPath
       clipPathUnits="userSpaceOnUse"
       id="clipPath2987">
      <rect
         style="fill:#e9c6af;stroke:#552200;stroke-width:0.5"
         id="rect2989"
         width="200.17928"
         height="185.11064"
         x="0.66958368"
         y="-0.12363688" />
    </clipPath>
    <clipPath
       clipPathUnits="userSpaceOnUse"
       id="clipPath2991">
      <rect
         style="fill:#e9c6af;stroke:#552200;stroke-width:0.5"
         id="rect2993"
         width="200.17928"
         height="185.11064"
         x="0.66958368"
         y="-0.12363688" />
    </clipPath>
    <clipPath
       clipPathUnits="userSpaceOnUse"
       id="clipPath2995">
      <rect
         style="fill:#e9c6af;stroke:#552200;stroke-width:0.5"
         id="rect2997"
         width="200.17928"
         height="185.11064"
         x="0.66958368"
         y="-0.12363688" />
    </clipPath>
    <clipPath
       clipPathUnits="userSpaceOnUse"
       id="clipPath2999">
      <rect
         style="fill:#e9c6af;stroke:#552200;stroke-width:0.5"
         id="rect3001"
         width="200.17928"
         height="185.11064"
         x="0.66958368"
         y="-0.12363688" />
    </clipPath>
    <clipPath
       clipPathUnits="userSpaceOnUse"
       id="clipPath3003">
      <rect
         style="fill:#e9c6af;stroke:#552200;stroke-width:0.5"
         id="rect3005"
         width="200.17928"
         height="185.11064"
         x="0.66958368"
         y="-0.12363688" />
    </clipPath>
    <clipPath
       clipPathUnits="userSpaceOnUse"
       id="clipPath3007">
      <rect
         style="fill:#e9c6af;stroke:#552200;stroke-width:0.5"
         id="rect3009"
         width="200.17928"
         height="185.11064"
         x="0.66958368"
         y="-0.12363688" />
    </clipPath>
    <clipPath
       clipPathUnits="userSpaceOnUse"
       id="clipPath3011">
      <rect
         style="fill:#e9c6af;stroke:#552200;stroke-width:0.5"
         id="rect3013"
         width="200.17928"
         height="185.11064"
         x="0.66958368"
         y="-0.12363688" />
    </clipPath>
    <clipPath
       clipPathUnits="userSpaceOnUse"
       id="clipPath3015">
      <rect
         style="fill:#e9c6af;stroke:#552200;stroke-width:0.5"
         id="rect3017"
         width="200.17928"
         height="185.11064"
         x="0.66958368"
         y="-0.12363688" />
    </clipPath>
    <clipPath
       clipPathUnits="userSpaceOnUse"
       id="clipPath3019">
      <rect
         style="fill:#e9c6af;stroke:#552200;stroke-width:0.5"
         id="rect3021"
         width="200.17928"
         height="185.11064"
         x="0.66958368"
         y="-0.12363688" />
    </clipPath>
    <clipPath
       clipPathUnits="userSpaceOnUse"
       id="clipPath3023">
      <rect
         style="fill:#e9c6af;stroke:#552200;stroke-width:0.5"
         id="rect3025"
         width="200.17928"
         height="185.11064"
         x="0.66958368"
         y="-0.12363688" />
    </clipPath>
    <clipPath
       clipPathUnits="userSpaceOnUse"
       id="clipPath3027">
      <rect
         style="fill:#e9c6af;stroke:#552200;stroke-width:0.5"
         id="rect3029"
         width="200.17928"
         height="185.11064"
         x="0.66958368"
         y="-0.12363688" />
    </clipPath>
    <clipPath
       clipPathUnits="userSpaceOnUse"
       id="clipPath3031">
      <rect
         style="fill:#e9c6af;stroke:#552200;stroke-width:0.5"
         id="rect3033"
         width="200.17928"
         height="185.11064"
         x="0.66958368"
         y="-0.12363688" />
    </clipPath>
    <clipPath
       clipPathUnits="userSpaceOnUse"
       id="clipPath3035">
      <rect
         style="fill:#e9c6af;stroke:#552200;stroke-width:0.5"
         id="rect3037"
         width="200.17928"
         height="185.11064"
         x="0.66958368"
         y="-0.12363688" />
    </clipPath>
    <clipPath
       clipPathUnits="userSpaceOnUse"
       id="clipPath3039">
      <rect
         style="fill:#e9c6af;stroke:#552200;stroke-width:0.5"
         id="rect3041"
         width="200.17928"
         height="185.11064"
         x="0.66958368"
         y="-0.12363688" />
    </clipPath>
    <clipPath
       clipPathUnits="userSpaceOnUse"
       id="clipPath3043">
      <rect
         style="fill:#e9c6af;stroke:#552200;stroke-width:0.5"
         id="rect3045"
         width="200.17928"
         height="185.11064"
         x="0.66958368"
         y="-0.12363688" />
    </clipPath>
    <clipPath
       clipPathUnits="userSpaceOnUse"
       id="clipPath3047">
      <rect
         style="fill:#e9c6af;stroke:#552200;stroke-width:0.5"
         id="rect3049"
         width="200.17928"
         height="185.11064"
         x="0.66958368"
         y="-0.12363688" />
    </clipPath>
    <clipPath
       clipPathUnits="userSpaceOnUse"
       id="clipPath3051">
      <rect
         style="fill:#e9c6af;stroke:#552200;stroke-width:0.5"
         id="rect3053"
         width="200.17928"
         height="185.11064"
         x="0.66958368"
         y="-0.12363688" />
    </clipPath>
    <clipPath
       id="clipPath2999-5"
       clipPathUnits="userSpaceOnUse">
      <rect
         y="-0.12363688"
         x="0.66958368"
         height="185.11064"
         width="200.17928"
         id="rect3001-3"
         style="fill:#e9c6af;stroke:#552200;stroke-width:0.5" />
    </clipPath>
    <clipPath
       id="clipPath3011-1"
       clipPathUnits="userSpaceOnUse">
      <rect
         y="-0.12363688"
         x="0.66958368"
         height="185.11064"
         width="200.17928"
         id="rect3013-2"
         style="fill:#e9c6af;stroke:#552200;stroke-width:0.5" />
    </clipPath>
  </defs>
  <sodipodi:namedview
     inkscape:document-rotation="0"
     pagecolor="#ffffff"
     bordercolor="#666666"
     borderopacity="1"
     objecttolerance="10"
     gridtolerance="10"
     guidetolerance="10"
     inkscape:pageopacity="0"
     inkscape:pageshadow="2"
     inkscape:window-width="1391"
     inkscape:window-height="927"
     id="namedview2200"
     showgrid="false"
     inkscape:zoom="1.0295376"
     inkscape:cx="-9.3707114"
     inkscape:cy="-51.762688"
     inkscape:window-x="26"
     inkscape:window-y="23"
     inkscape:window-maximized="0"
     inkscape:current-layer="svg2198" />
  <path
     d="M92.955 221.902c-9.278-12.265-23.863-19.576-34.235-30.931-5.516-6.039-36.322-46.362-39.476-53.908-2.46-5.889-6.52-13.253-7.049-22.66-.247-4.405 8.61 2.01 12.777 3.459 12.384 4.303 23.268 13.077 36.156 15.48 13.53 2.524 27.895 1.803 41.261-1.477 11.418-2.803 22.36-8.232 31.828-15.202 9.906-7.29 19.582-16.063 25.08-27.066 5.316-10.636 6.525-23.207 6.37-35.096-.098-7.632-13.664-1.673-7.19-5.717 5.3-3.31 12.445 2.971 16.927 7.326 3.813 3.704 21.738 24.849 24.598 29.33 4.843 5.223 27.742 76.25 29.999 88.638-26.916 42.736-123.812 64.157-137.046 47.824z"
     fill="#e9c6af"
     stroke="#520"
     stroke-width=".5"
     id="path2128"
     clip-path="url(#clipPath3051)" />
  <path
     sodipodi:nodetypes="cccccccccccccccccccccsssc"
     d="M 4.07,92.334 C 2.507,82.447 2.696,72.007 5.255,62.33 7.58,53.54 11.724,44.876 17.794,38.106 24.596,30.52 34.153,25.774 43.25,21.19 56.17,14.68 69.985,9.755 84.065,6.432 c 9.896,-2.335 20.133,-3.229 30.296,-3.545 5.313,-0.166 8.24,-0.51 15.924,0.864 6.418,1.147 12.554,4.531 17.452,8.836 5.903,5.19 8.43,8.693 13.258,19.5 4.828,10.805 5.783,16.786 5.978,22.787 0.219,6.758 -0.183,13.588 -1.419,20.235 -0.89,4.794 -2.154,9.6 -4.287,13.984 -2.334,4.8 -5.718,9.054 -9.146,13.146 -3.581,4.276 -7.619,8.178 -11.846,11.816 -3.317,2.855 -6.916,5.377 -10.552,7.81 -3.117,2.087 -6.231,4.237 -9.636,5.81 -5.435,2.509 -11.249,4.153 -17.033,5.696 -4.524,1.205 -9.123,2.199 -13.77,2.767 -4.273,0.522 -8.607,0.877 -12.902,0.578 -6.904,-0.482 -13.714,-2.062 -20.413,-3.8 -2.707,-0.702 -5.345,-1.661 -7.955,-2.667 -3.4965,-1.3475 -10.218243,-2.92836 -17.182494,-5.36253 -3.482124,-1.21708 -7.024874,-2.6475 -10.255406,-4.36875 C 17.345568,118.79648 12.194,114.404 12.194,114.404 6.8303342,108.68693 5.292,100.077 4.07,92.334 Z"
     fill="#e9c6af"
     stroke="#552200"
     stroke-width="0.5"
     id="path2130"
     clip-path="url(#clipPath3047)" />
  <path
     d="M71.378 14.728c.85.715 1.63 2.174 2.022 4.085v0c.294 1.434.356 3 .254 4.677h0c-.21 3.417-1.108 7.088-1.455 9.787v0c-.123.956-.176 1.782-.11 2.423v0c.152 1.46 1.816 4.566 3.574 7.625h0c2.1 3.653 4.992 8.002 5.22 9.157-.348-1.76 1.353-5.518 3.042-9.781h0c1.32-3.332 2.437-6.623 2.245-8.463v0c-.075-.722-.321-1.648-.708-2.704v0c-1.117-3.053-3.312-7.018-6.081-10.228h0a26.812 26.812 0 00-3.995-3.795v0c-1.709-1.313-3.187-2.093-4.008-2.783z"
     fill="#520"
     stroke="#520"
     id="path2132"
     clip-path="url(#clipPath3043)" />
  <path
     d="M45.864 24.188c1.273 2.599 2.757 7.78 4.504 11.993v0c1.76 4.244 3.657 7.585 4.925 8.663h0l.013.011v0c1.447 1.216 4.332 1.801 6.845 2.12v0c1.064.134 1.988.231 2.804.416v0c1.072.243 1.836.635 2.088 1.101-.237-.438-.312-1.32-.625-2.508v0a22.549 22.549 0 00-1.049-3.02v0c-.999-2.372-2.504-5.172-3.454-5.97v0l-.011-.01h0c-1.068-.886-4.093-1.78-7.543-4.02v0c-3.624-2.354-7.063-5.849-8.497-8.775zM106.827 6.834c-1.508 1.19-4.818 2.645-7.732 5.098h0c-2.692 2.265-4.687 4.968-5.75 7.499v0c-.363.866-.58 1.642-.643 2.249v0c-.156 1.519.81 4.101 2.25 6.723h0c1.792 3.26 4.177 6.35 4.5 7.98-.334-1.687.795-5.387 2.183-8.43h0c1.079-2.364 2.285-4.162 2.383-5.11v0c.041-.406-.016-.93-.118-1.552v0c-.288-1.77-.863-4.068-.574-6.887h0c.33-3.219 1.821-6.245 3.5-7.57zM141.91 12.454c.857.72 1.622 2.01 1.767 3.476v0c.108 1.093-.133 2.104-.583 3.074h0c-.427.919-1.05 1.818-1.687 2.686h0c-.778 1.059-1.53 2.01-2.135 2.967v0c-.291.459-.525.885-.674 1.261v0c-.439 1.11-.716 4.395-.551 7.575v0c.088 1.723.302 3.29.648 4.783v0c.44 1.892 1.057 3.334 1.241 4.266-.194-.985.11-2.466.922-4.043v0c.616-1.195 1.446-2.325 2.377-3.451v0c1.86-2.25 3.75-4.109 4.333-5.58v0c.157-.398.295-.918.408-1.528v0c.222-1.198.37-2.868.288-4.594h0c-.072-1.513-.32-3.056-.845-4.498h0a10.503 10.503 0 00-2.231-3.662v0c-1.179-1.259-2.46-2.046-3.277-2.732z"
     fill="#803300"
     stroke="#803300"
     id="path2134"
     clip-path="url(#clipPath3039)" />
  <path
     d="M125.558 4.966c.343 1.781-.333 4.435-1.736 6.995h0c-1.246 2.274-2.889 4.285-3.66 5.722h0c-.133.248-.24.477-.314.684v0c-.38 1.05-.486 3.835-.424 6.564h0c.07 3.078.557 6.187.404 7.632.174-1.65 1.71-3.965 3.617-6.304h0c1.693-2.076 3.349-3.9 3.822-5.21v0c.08-.22.15-.484.21-.785h0c.353-1.75.413-4.774-.015-7.729h0c-.456-3.147-1.604-6.012-1.904-7.569zM29.29 34.97c1.49 1.448 3.25 5.344 4.413 8.314h0c.978 2.498 1.632 4.667 2.208 5.225v0c.21.204.517.392.895.573v0c1.287.615 3.357 1.117 5.452 2.334h0c2.39 1.389 4.62 3.658 5.326 5.54-.652-1.74-.739-5.1-1.145-8.123h0c-.387-2.884-1.07-5.415-2.028-7.155v0c-.263-.477-.533-.858-.796-1.114v0c-.864-.837-3.083-1.323-5.753-1.995h0c-3.227-.812-6.92-1.995-8.572-3.6z"
     fill="#520"
     stroke="#520"
     id="path2136"
     clip-path="url(#clipPath3035)" />
  <path
     d="M12.718 50.28c2.11 1.263 6.356 5.482 8.877 8.146h0a89.24 89.24 0 013.015 3.345v0c.609.704 1.026 1.19 1.345 1.365v0c.234.128.537.207.854.238v0c.653.063 1.124-.064 1.767-.233v0c.256-.068.533-.134.824-.14h0c.29-.005.593.049.9.208h0c.66.341 1.19 1.092 1.486 2.117v0c.386 1.338.303 2.91-.056 3.945.378-1.09 1.151-2.268 1.946-3.668v0c.571-1.005 1.162-2.15 1.417-3.478h0c.125-.647.167-1.32.11-2.021h0a8.246 8.246 0 00-.457-2.09h0a10.123 10.123 0 00-2.234-3.59v0c-.438-.45-.864-.788-1.235-.992v0c-.527-.289-1.363-.455-2.426-.546v0c-1.27-.108-2.852-.105-4.634-.175h0c-4.086-.158-8.834-.836-11.5-2.43z"
     fill="#803300"
     stroke="#803300"
     id="path2138"
     clip-path="url(#clipPath3031)" />
  <path
     d="M5.634 71.951c2.345.343 5.52 2.241 8.356 4.816h0c2.408 2.186 4.395 4.635 6 6.157v0c.588.558 1.118.989 1.581 1.242v0c1.045.573 3.708.787 6.427.685h0c3.476-.13 6.847-1.1 8.241-.912-1.664-.225-3.64-2.557-5.446-5.175h0C29.41 76.759 28.15 74.8 27.04 74.19v0c-.45-.246-1.105-.468-1.92-.676v0c-2.2-.562-5.746-1.075-9.299-1.293h0c-4.037-.248-8.074.038-10.187-.271zM88.267 93.995c-.04 1.286-1.147 3.07-2.606 4.982h0c-1.379 1.806-2.722 3.416-3.359 4.957h0c-.1.24-.173.463-.216.663v0c-.24 1.11.179 3.55 1.034 6.116h0c.936 2.81 2.495 5.658 2.876 7.233-.437-1.805.192-4.666 1.357-7.088h0c1.008-2.096 2.245-3.67 2.445-4.594v0a3.39 3.39 0 00.063-.589h0c.039-1.117-.284-3.73-.617-5.839h0c-.385-2.43-1.013-4.707-.977-5.841zM155.65 33.806c.764 1.56 1.16 3.815.63 5.843v0a6.316 6.316 0 01-.912 2.007v0c-.38.55-.827 1-1.311 1.375h0c-.973.755-2.138 1.24-3.213 1.626h0c-1.473.528-2.809.883-3.627 1.367v0a.184.184 0 00-.014.008v0c-.713.427-1.951 1.59-3.23 2.872v0c-.979.983-2.094 2.156-2.963 3.273h0a13.55 13.55 0 00-1.122 1.654h0c-.322.573-.553 1.122-.672 1.64h0a3.332 3.332 0 00-.09.775h0c.001.262.041.486.103.68h0c.07.218.164.388.253.53v0c.11.175.213.312.287.449a.702.702 0 01-.06-.493v0a.721.721 0 01.232-.378h0c.105-.092.235-.156.386-.201h0c.138-.042.295-.068.468-.086h0c.31-.032.728-.042 1.187-.053h0c.458-.01.97-.021 1.563-.044h0c1.216-.046 2.648-.141 4.114-.363v0c1.953-.296 3.726-.79 4.815-1.44v0l.019-.012v0c1.013-.612 2.582-2.088 3.914-4.108h0c1.034-1.568 1.89-3.415 2.256-5.441h0c.177-.98.23-1.944.166-2.896v0a12.599 12.599 0 00-.527-2.83v0c-.694-2.29-1.92-4.258-2.652-5.754zM109.533 89.299c-.02.647-.298 1.528-.472 2.551v0c-.135.798-.186 1.613-.05 2.544h0c.13.895.41 1.73.722 2.467h0c.358.842.773 1.597 1.05 1.962v0c.095.126.187.225.276.294v0c.264.203.744.281 1.375.373v0c.596.086 1.326.187 2.127.489v0c1.936.727 3.798 2.625 4.255 4.517-.38-1.576-.285-4.575-.875-7.07v0a15.196 15.196 0 00-.995-2.908v0c-.384-.823-.768-1.416-1.072-1.65v0a1.809 1.809 0 00-.407-.228v0c-.526-.22-1.158-.286-1.82-.293h0c-.506-.005-1.094.028-1.611-.056h0a2.776 2.776 0 01-1.58-.806v0c-.617-.626-.945-1.517-.924-2.186z"
     fill="#520"
     stroke="#520"
     id="path2140"
     clip-path="url(#clipPath3027)" />
  <path
     d="M70.661 95.126c-1.952 1.428-4.798 3.499-7.005 6.935h0c-.82 1.277-1.505 2.687-1.932 4.172h0c-.418 1.453-.594 2.99-.38 4.526h0a8.512 8.512 0 002.032 4.48h0c1.315 1.5 3.04 2.417 4.781 2.883v0c1.575.422 3.097.464 4.314.341v0c.476-.048 1.17-.451 1.938-1.072h0c2.042-1.654 4.44-4.987 5.847-5.643-1.757.819-5.261-.2-7.213-1.122h0c-.69-.326-1.156-.585-1.42-.558v0c-.778.079-1.345.146-2.056.177v0c-.634.028-1.282.021-1.757-.09h0c-.46-.108-.983-.356-1.462-.972h0c-.46-.591-.82-1.454-.97-2.56h0c-.152-1.125-.073-2.394.238-3.702h0c.839-3.527 3.076-6.355 5.045-7.795zM117.225 80.876c.972.587 2.247 1.553 4.053 2.335v0a14.57 14.57 0 004.674 1.16h0c3.924.312 7.75-.923 10.198-2.421h0c.44-.27.816-.538 1.119-.792v0c1.623-1.36 3.568-4.5 4.923-8.27h0c1.453-4.045 1.789-8.095 2.276-9.802-.532 1.864-2.836 4.784-5.922 7.325h0c-2.63 2.164-5.4 3.58-6.507 4.506v0c-.223.187-.466.421-.73.69h0c-1.448 1.467-3.308 3.67-5.965 5.04h0c-1.21.623-2.483 1.013-3.8 1.113v0c-1.762.133-3.331-.288-4.319-.884zM33.654 73.735c.806-.788 3.918-3.476 6.188-5.135v0c1.056-.772 2.176-1.513 3.356-2.141v0a17.007 17.007 0 013.48-1.412h0A24.937 24.937 0 0158.45 62.64v0c4.03.166 7.683 1.278 10.727 2.794v0a27.235 27.235 0 018.28 6.353h0a27.473 27.473 0 012.361 3.114v0c.298.454 2.027.791 3.724 1.411 1.73.632 3.38 1.547 3.59 2.286-.182-.638.593-2.484 1.086-4.448.506-2.014.721-4.127.22-4.893v0a27.843 27.843 0 00-3.641-4.444h0c-2.92-2.91-6.992-5.764-12.167-7.634v0c-4.276-1.545-9.211-2.372-14.41-1.918v0a31.863 31.863 0 00-14.304 4.827h0c-1.3 1.057-2.374 2.218-3.294 3.389v0c-.947 1.204-1.753 2.447-2.455 3.586v0c-1.993 3.238-3.028 5.22-4.513 6.671z"
     fill="#fff"
     stroke="#fff"
     id="path2142"
     clip-path="url(#clipPath3023)" />
  <path
     d="M133.677 37.328c-2.174-1.31-4.943-2.714-8.4-3.37v0c-2.633-.5-5.545-.542-8.749.094h0c-2.86.567-5.805 1.648-8.785 3.238h0c-2.856 1.523-5.641 3.46-8.293 5.698v0c-5.608 4.735-10.23 10.482-13.505 15.747h0c-1.999 3.215-3.456 6.177-4.447 8.704v0c-.66 1.684-1.108 3.16-1.388 4.401v0c-.096.426 1.128 1.58 2.417 2.584 1.288 1.004 2.637 1.843 2.605 2.175.032-.332 1.538-.84 3.06-1.235 1.52-.395 3.05-.69 3.12-.996v0c.199-.881.446-2.022.804-3.396v0a62.008 62.008 0 012.564-7.722h0c2.023-4.992 5.08-10.746 9.2-15.905v0c1.934-2.423 4.03-4.619 6.248-6.468h0c2.31-1.926 4.694-3.427 7.116-4.45h0c2.716-1.148 5.376-1.65 7.937-1.587v0a17.329 17.329 0 018.496 2.488zM159.086 57c-.187 4.969-2.063 12.272-5.85 19.203h0c-3.101 5.679-6.859 10.094-10.646 13.838v0c-2.916 2.883-5.604 5.132-7.21 6.808v0c-1.046 1.092-2.371 3.46-4.03 6.218h0c-3.675 6.111-8.812 13.413-12.639 15.818 3.396-2.135 12.816-4.607 19.644-7.798h0c3.273-1.53 5.91-3.128 7.206-4.48v0c1.929-2.013 4.378-5.47 6.57-9.845v0c2.86-5.707 4.852-12.048 5.91-18.972h0c1.345-8.81.844-15.457 1.045-20.79zM12.327 96.733c3.327 2.288 8.247 7.579 14.538 13.743 6.474 6.344 12.737 11.86 18.526 15.362v0c1.314.795 2.503 1.419 3.518 1.85v0c3.702 1.576 11.107 2.743 18.901 2.23h0c4.62-.303 8.753-1.125 12.592-2.228 3.71-1.066 6.74-2.298 8.806-2.867-2.116.583-5.337.737-9 .194-3.721-.552-7.413-1.73-11.062-3.362h0c-6.09-2.721-11.315-6.45-14.37-7.75v0c-.863-.368-1.955-.751-3.228-1.172v0c-7-2.314-11.593-3.595-21.243-7.49-7.595-3.066-15.054-6.5-17.978-8.51z"
     fill="#fff"
     stroke="#fff"
     id="path2144"
     clip-path="url(#clipPath3019)" />
  <path
     d="M51.44 105.464c-.629-.653-1.382-1.515-2.726-2.544v0c-.989-.757-2.115-1.46-3.421-2.138h0c-2.817-1.46-6.5-2.76-7.907-3.094h0c-.985-.236-2.332-.395-4.01-.66h0c-1.226-.193-2.504-.426-3.728-.776h0c-1.235-.353-2.338-.803-3.302-1.394v0c-1.287-.79-2.136-1.73-2.579-2.527.447.804 1.002 1.89 2.075 3.118v0c.8.916 1.772 1.772 2.956 2.579h0c1.167.796 2.43 1.467 3.654 2.023h0c1.582.719 3.11 1.25 4.02 1.467h0c1.659.396 5.088.586 8.182 1.127h0c1.352.236 2.578.538 3.68.953v0c1.468.554 2.504 1.24 3.107 1.866zM151.263 66.96c-.758 2.405-.986 4.387-2.747 8.65h0c-1.36 3.294-3.094 6.387-4.601 8.495v0c-.365.51-.706.945-1.006 1.284v0c-1.266 1.43-4.048 3.461-7.11 5.555-3.023 2.066-5.887 3.929-7.135 5.163 1.158-1.146 3.277-4.141 5.253-7.044 1.891-2.779 4.034-6.101 5.007-7.201v0c.285-.322.65-.692 1.074-1.105v0c1.839-1.788 4.143-3.791 6.473-6.414h0c2.524-2.84 4.205-5.52 4.792-7.384z"
     fill="#803300"
     stroke="#803300"
     id="path2146"
     clip-path="url(#clipPath3015)" />
  <path
     transform="translate(-4.4031448,4.1185814)"
     d="m 159.715,116.646 c 2.097,-1.532 6.686,-3.258 11.54,-5.77 5.088,-2.632 9.73,-5.707 13.132,-9.138 v 0 c 1.36,-1.373 2.378,-2.673 2.938,-3.744 v 0 c 1.224,-2.338 1.312,-7.556 0.604,-12.829 -0.692,-5.157 -2.16,-9.956 -1.919,-12.24 -0.258,2.449 -3.023,6.381 -6.348,9.733 -3.25,3.275 -6.789,5.687 -7.647,7.327 v 0 c -0.416,0.795 -0.763,1.982 -1.144,3.44 v 0 c -0.996,3.809 -1.946,7.992 -4.191,12.995 -2.092,4.66 -4.793,8.64 -6.965,10.226 z"
     fill="#552200"
     stroke="#552200"
     id="path2148"
     clip-path="url(#clipPath3011)" />
  <path
     transform="matrix(1.0461887,0,0,1.1323318,-12.487543,-12.735543)"
     d="m 168.824,134.942 c 2.453,-0.93 6.995,-1.047 11.545,-1.587 v 0 c 4.05,-0.48 7.673,-1.272 10.81,-2.717 v 0 c 1.665,-0.767 2.964,-1.629 3.675,-2.43 v 0 c 0.935,-1.052 1.424,-3.708 1.627,-6.8 v 0 c 0.306,-4.687 -0.005,-10.398 1.238,-12.554 -1.293,2.242 -6.385,4.687 -10.417,6.026 v 0 c -2.58,0.856 -4.7,1.293 -5.273,1.938 v 0 c -0.476,0.536 -0.857,1.482 -1.296,2.69 v 0 c -0.827,2.277 -1.703,4.918 -3.745,7.966 v 0 c -2.305,3.44 -5.653,6.516 -8.164,7.468 z"
     fill="#803300"
     stroke="#803300"
     id="path2150"
     clip-path="url(#clipPath3007)" />
  <path
     transform="translate(-0.77590962,3.96302)"
     d="m 54.576,165.708 c 1.85,0.438 4.989,1.893 8.916,3.343 4.074,1.504 8.427,2.857 12.584,3.827 v 0 c 3.157,0.736 5.906,1.178 7.59,1.119 v 0 c 1.532,-0.054 4.413,-1.81 7.17,-3.584 2.756,-1.773 5.336,-3.52 6.626,-3.566 -1.252,0.044 -4.042,-1.484 -6.926,-2.989 -2.884,-1.505 -5.892,-3.027 -7.328,-2.977 v 0 c -1.645,0.057 -4.195,0.665 -7.19,1.44 v 0 c -3.96,1.025 -8.025,2.148 -12.17,2.9 -4.024,0.731 -7.358,0.94 -9.272,0.487 z"
     fill="#803300"
     stroke="#803300"
     id="path2154"
     clip-path="url(#clipPath2999)" />
  <path
     d="M93.359 83.585c.218 1.182-.555 5.143-.988 8.472v0c-.453 3.489-.81 7.137-.378 8.34.012.034.026.068.04.102l.008.027-.025-.065.025.065c.153.398 2.04.768 3.942 1.227v0c1.9.46 3.765.87 3.892 1.263-.127-.393 1.123-1.837 2.298-3.44v0c1.156-1.577 2.275-3.2 2.13-3.727-.665-1.64-3.214-3.768-5.757-6.012v0c-2.62-2.313-4.882-4.595-5.187-6.252z"
     fill="#fff"
     stroke="#fff"
     id="path2158"
     clip-path="url(#clipPath2991)" />
  <path
     transform="matrix(1.0935632,0,0,0.86298011,-22.873882,22.650887)"
     d="m 101.999,145.672 c 2.625,-0.022 8.615,1.208 15.272,0.855 v 0 c 6.122,-0.324 12.091,-1.611 14.779,-3.09 v 0 a 14.855,14.855 0 0 0 1.589,-1.034 v 0 c 3.444,-2.527 7.53,-7.024 10.815,-11.632 v 0 a 71.501,71.501 0 0 0 3.637,-5.65 v 0 c 1.26,-2.167 2.062,-3.787 2.702,-4.502 -0.663,0.741 -2.216,1.595 -4.447,2.56 v 0 c -1.678,0.727 -3.73,1.51 -5.965,2.307 v 0 c -4.834,1.723 -10.445,3.364 -13.73,4.72 v 0 c -0.574,0.237 -1.079,0.47 -1.499,0.7 v 0 c -2.292,1.263 -6.131,5.064 -10.427,8.368 v 0 c -4.99,3.837 -9.77,6.374 -12.726,6.398 z"
     fill="#552200"
     stroke="#552200"
     id="path2160"
     clip-path="url(#clipPath2987)" />
  <path
     transform="translate(-4.4031448,4.1185814)"
     d="m 120.072,166.552 c 1.19,-0.063 3.243,0.236 5.982,0.373 v 0 c 2.126,0.106 4.47,0.12 7.04,-0.043 v 0 c 5.352,-0.338 10.492,-1.399 12.967,-2.666 v 0 a 15.21,15.21 0 0 0 1.613,-0.978 v 0 c 3.17,-2.168 7.084,-6.045 9.597,-10.204 v 0 c 1.15,-1.904 1.885,-3.654 2.295,-5.223 v 0 c 0.553,-2.116 0.412,-3.456 0.471,-4.361 -0.06,0.923 -0.757,2.128 -2.184,3.333 v 0 c -1.062,0.898 -2.458,1.748 -4.128,2.57 v 0 c -3.568,1.758 -8.267,3.216 -11.21,4.387 v 0 c -0.568,0.226 -1.069,0.443 -1.486,0.657 v 0 c -2.05,1.05 -5.756,4.128 -9.782,6.801 v 0 c -1.966,1.306 -3.89,2.469 -5.683,3.391 v 0 c -2.357,1.213 -4.284,1.899 -5.492,1.963 z"
     fill="#803300"
     stroke="#803300"
     id="path2162"
     clip-path="url(#clipPath2983)" />
  <path
     d="M82.996 87.551c.388-.873 1.147-1.932 2.176-2.755v0a6.87 6.87 0 012.476-1.276h0c.83-.23 1.634-.28 2.393-.256h0c.865.03 1.71.162 2.378.244v0c.359.044.676.076.94.077v0c.582.001 2.794-.45 4.618-.753h0c2.113-.35 5.339-.867 6.099-.842-1.286-.043-3.318-1.01-5.736-2.055h0c-2-.863-3.792-1.512-4.97-1.515v0c-.333 0-.752.041-1.224.13v0c-.9.172-2.004.517-3.1 1.091h0c-.956.5-1.842 1.137-2.627 1.93h0c-.81.819-1.429 1.716-1.939 2.656v0c-.683 1.26-1.092 2.442-1.484 3.324z"
     fill="#803300"
     stroke="#803300"
     id="path2166"
     clip-path="url(#clipPath2975)" />
  <g
     id="g2172"
     clip-path="url(#clipPath2971)">
    <path
       d="M73.082 101.969c.611-1.004 1.488-2.309 2.227-4.088a17.617 17.617 0 001.206-4.529c.438-3.368-.043-6.855-1-10-.659-2.16-1.49-3.976-2.174-5.074-.591-.948-1.949-2.232-3.62-3.539-3.066-2.398-6.922-4.549-8.038-5.81 1.112 1.256 2.688 5.324 3.94 8.826.654 1.826 1.22 3.496 1.705 4.272.603.967 1.644 2.303 2.736 3.877 1.562 2.253 3.08 4.797 3.825 7.583.381 1.426.532 2.818.448 4.162-.113 1.8-.641 3.312-1.255 4.32zM102.52 64.347c-.102 1.159-.62 2.983-.867 5.083-.195 1.666-.213 3.365.059 5.116.418 2.702 1.467 4.953 2.413 5.952.655.691 1.681 1.465 3.004 2.195 2.63 1.45 5.763 2.385 9.073 3.041 3.716.737 7.024 1.025 8.583 1.552-1.48-.5-4.448-2.316-7.229-4.53-2.595-2.065-4.384-3.948-5.87-5.798-.702-.874-1.236-1.61-1.655-2.053-.607-.64-2.112-1.35-3.626-2.649a11.674 11.674 0 01-2.643-3.202c-.935-1.681-1.348-3.496-1.242-4.707z"
       id="path2168" />
    <path
       d="M102.838 62.846c1.082-4.231.592-3.781 2.206-7.84 1.384-3.482 3.711-6.714 6.605-9.094 1.88-1.547 4.207-2.804 6.627-3.071 1.786-.197 3.683.295 5.266 1.145 3.034 1.628 5.665 4.229 7.406 7.199 1.648 2.81 2.31 6.19 2.524 9.44.207 3.153.195 6.579-1.229 9.4-1.237 2.45-5.321 5.293-5.936 5.707-.614.415-4.544 1.867-6.945 1.916-2.876.058-5.645-1.145-8.404-1.955-1.655-.486-3.392-.854-4.872-1.738-1.438-.859-3.345-1.737-3.73-3.367-.214-.9.253-6.845.482-7.742zM44.062 71.872c1.784-1.898 3.818-3.895 6.33-4.582 3.19-.872 6.858-.433 9.875.918 4.632 2.074 10.994 9.559 11.148 10.368.153.81 2.937 4.855 2.644 7.485-.306 2.744-2.546 4.975-4.41 7.011-1.787 1.95-3.816 3.949-6.32 4.799-1.836.623-3.935.5-5.816.03-5.114-1.28-10.709-3.337-13.912-7.525-2.698-3.526-3.788-8.587-3.05-12.965.363-2.156 2.013-3.947 3.51-5.54z"
       stroke="#000"
       id="path2170" />
  </g>
  <g
     fill="#fc0"
     id="g2180"
     clip-path="url(#clipPath2967)">
    <ellipse
       cx="56.571"
       cy="83.534"
       rx="12.925"
       ry="13.472"
       fill-rule="evenodd"
       stroke="#2b0000"
       stroke-width="1.282"
       id="ellipse2174" />
    <ellipse
       cx="118.29"
       cy="61.961"
       rx="12.089"
       ry="14.206"
       fill-rule="evenodd"
       stroke="#2b0000"
       stroke-width="1.273"
       id="ellipse2176" />
    <path
       d="M95.556 112.294l8.034 13.552 4.574-1.637.274-7.44c.035-7.271-.948-5.075-1.459-7.398z"
       id="path2178" />
  </g>
  <g
     id="g2196"
     clip-path="url(#clipPath2963)">
    <ellipse
       ry="9.528"
       rx="11.714"
       cy="85.424"
       cx="58.794"
       fill="none"
       id="ellipse2182" />
    <ellipse
       ry="9.805"
       rx="8.232"
       cy="82.535"
       cx="57.388"
       fill-rule="evenodd"
       stroke="#2b0000"
       stroke-width=".873"
       id="ellipse2184" />
    <ellipse
       cx="118.02"
       cy="61.579"
       rx="8.291"
       ry="9.324"
       fill-rule="evenodd"
       stroke="#2b0000"
       stroke-width=".854"
       id="ellipse2186" />
    <path
       d="M95.556 112.294c.227.168.513.399.868.754.276.277.579.613.916 1.03.588.727 1.204 1.602 1.893 2.656.636.974 1.27 2 1.901 3.003a61.768 61.768 0 001.835 2.792c.736 1.038 1.242 1.612 1.63 2.005l.141.141c.162.16.323.298.476.402.084.057.16.1.228.13a.772.772 0 00.156.053.4.4 0 00.11.01.383.383 0 00.132-.038c.106-.05.263-.166.456-.426.18-.243.38-.594.586-1.091.197-.473.396-1.066.595-1.807.689-2.267.983-4.686.802-7.117-.178-2.39-.78-4.276-1.302-5.42.525 1.152 1.308 2.938 1.761 5.36.459 2.449.473 5-.01 7.485-.18.787-.368 1.444-.565 1.993-.207.574-.428 1.041-.668 1.415-.257.4-.546.71-.883.92a1.893 1.893 0 01-1.175.291 2.178 2.178 0 01-.578-.129c-.19-.07-.366-.16-.524-.26a4.803 4.803 0 01-.928-.788c-.458-.501-.976-1.254-1.608-2.396-.493-.89-.992-1.899-1.543-3.04-.517-1.073-1.028-2.156-1.546-3.188-.557-1.11-1.065-2.049-1.557-2.823-.283-.446-.544-.811-.788-1.11-.314-.384-.585-.64-.811-.806z"
       id="path2188" />
    <ellipse
       cx="52.564"
       cy="81.274"
       rx="1.418"
       ry="1.476"
       fill="#fff"
       id="ellipse2190" />
    <ellipse
       ry="1.476"
       rx="1.418"
       cy="59.563"
       cx="114.931"
       fill="#fff"
       id="ellipse2192" />
    <path
       d="M17.183 16.558a8.97 8.97 0 011.008-1.877c.388-.56.879-1.157 1.486-1.753a13.637 13.637 0 013.933-2.698c1.522-.68 3.042-.983 4.43-.88a6.311 6.311 0 000 0c-1.388-.103-2.908.2-4.43.88a13.637 13.637 0 00-3.933 2.698 12.177 12.177 0 00-1.486 1.753 8.97 8.97 0 00-1.008 1.877z"
       id="path2194" />
  </g>
  <path
     sodipodi:nodetypes="ccccccccccccccccccc"
     inkscape:original-d="m 16.541357,117.58871 c 1.943749,1.47123 3.886457,2.94142 5.828242,4.41067 2.890865,0.98564 5.780615,1.97024 8.669423,2.95386 3.804072,1.21235 7.606993,2.42365 11.408989,3.63398 3.075877,1.01303 6.15063,2.02501 9.224445,3.03602 3.729509,1.1597 7.457869,2.31835 11.185303,3.47602 3.083031,0.28506 6.164939,0.5691 9.245909,0.85215 2.175079,0.38388 4.349027,0.76673 6.522105,1.14861 2.653201,-0.25287 5.305296,-0.50673 7.956445,-0.7616 2.392173,-0.3043 4.783251,-0.60958 7.173376,-0.91587 3.756375,-0.7662 7.511676,-1.53337 11.266126,-2.30159 4.93599,-1.57843 9.87089,-3.15782 14.80498,-4.73828 3.8928,-2.4216 7.7483,-4.82161 11.67514,-7.26765 3.90903,-3.17135 7.81706,-6.34371 11.72409,-9.51706 2.40939,-2.31673 4.81772,-4.63442 7.22516,-6.9532 2.75588,-3.31773 5.51071,-6.6364 8.26464,-9.956201 1.67036,-3.311359 3.33969,-6.623653 5.00808,-9.937082 0.74939,-3.75479 1.49773,-7.510349 2.24512,-11.267137 0.42444,-4.619383 0.84789,-9.239767 1.27034,-13.86115"
     inkscape:path-effect="#path-effect93"
     id="path91"
     d="m 16.541357,117.58871 c 1.943869,1.47107 3.886575,2.94126 6.302942,4.16849 2.416366,1.22723 5.306116,2.21183 8.652554,3.3098 3.346438,1.09797 7.149358,2.30927 10.588297,3.42096 3.438938,1.11168 6.513689,2.12367 9.91535,3.20901 3.401661,1.08534 7.130021,2.24399 10.535197,2.96522 3.405176,0.72123 6.487084,1.00527 9.115138,1.33878 2.628053,0.33352 4.802,0.71637 7.215018,0.78073 2.413017,0.0644 5.065112,-0.1895 7.586754,-0.46909 2.521643,-0.2796 4.91272,-0.58488 7.985923,-1.12115 3.073203,-0.53626 6.8285,-1.30344 11.17365,-2.47678 4.34515,-1.17334 9.28005,-2.75274 13.69332,-4.75376 4.41327,-2.00101 8.26877,-4.40102 12.18663,-7.20968 3.91785,-2.80865 7.82589,-5.98101 10.98405,-8.72602 3.15816,-2.745 5.56649,-5.06269 8.1481,-7.88088 2.5816,-2.8182 5.33643,-6.136872 7.54852,-9.452304 2.21209,-3.315431 3.88142,-6.627726 5.09033,-10.161648 1.20892,-3.533921 1.95726,-7.28948 2.54321,-11.4775 0.58595,-4.18802 1.0094,-8.808404 1.43293,-13.429688"
     style="fill:none;stroke:#e9c6af;stroke-width:3;stroke-linecap:butt;stroke-linejoin:miter;stroke-opacity:1;stroke-miterlimit:4;stroke-dasharray:none" />
  <path
     style="fill:#552200;stroke:#552200"
     clip-path="url(#clipPath2999-5)"
     id="path2154-5"
     stroke="#803300"
     fill="#803300"
     d="m 54.576,165.708 c 1.85,0.438 4.989,1.893 8.916,3.343 4.074,1.504 8.427,2.857 12.584,3.827 v 0 c 3.157,0.736 5.906,1.178 7.59,1.119 v 0 c 1.532,-0.054 4.413,-1.81 7.17,-3.584 2.756,-1.773 5.336,-3.52 6.626,-3.566 -1.252,0.044 -4.042,-1.484 -6.926,-2.989 -2.884,-1.505 -5.892,-3.027 -7.328,-2.977 v 0 c -1.645,0.057 -4.195,0.665 -7.19,1.44 v 0 c -3.96,1.025 -8.025,2.148 -12.17,2.9 -4.024,0.731 -7.358,0.94 -9.272,0.487 z"
     transform="translate(-17.784679,-18.574507)" />
</svg>
